<svg width="146" height="41" viewBox="0 0 146 41" fill="none" xmlns="http://www.w3.org/2000/svg">
<path d="M17.0859 21.6973H6.3457V33H2.9707V7.40625H18.8262V10.1836H6.3457V18.9375H17.0859V21.6973ZM33.5039 33C33.3164 32.625 33.1641 31.957 33.0469 30.9961C31.5352 32.5664 29.7305 33.3516 27.6328 33.3516C25.7578 33.3516 24.2168 32.8242 23.0098 31.7695C21.8145 30.7031 21.2168 29.3555 21.2168 27.7266C21.2168 25.7461 21.9668 24.2109 23.4668 23.1211C24.9785 22.0195 27.0996 21.4688 29.8301 21.4688H32.9941V19.9746C32.9941 18.8379 32.6543 17.9355 31.9746 17.2676C31.2949 16.5879 30.293 16.248 28.9688 16.248C27.8086 16.248 26.8359 16.541 26.0508 17.127C25.2656 17.7129 24.873 18.4219 24.873 19.2539H21.6035C21.6035 18.3047 21.9375 17.3906 22.6055 16.5117C23.2852 15.6211 24.1992 14.918 25.3477 14.4023C26.5078 13.8867 27.7793 13.6289 29.1621 13.6289C31.3535 13.6289 33.0703 14.1797 34.3125 15.2812C35.5547 16.3711 36.1992 17.877 36.2461 19.7988V28.5527C36.2461 30.2988 36.4688 31.6875 36.9141 32.7188V33H33.5039ZM28.1074 30.5215C29.127 30.5215 30.0938 30.2578 31.0078 29.7305C31.9219 29.2031 32.584 28.5176 32.9941 27.6738V23.7715H30.4453C26.4609 23.7715 24.4688 24.9375 24.4688 27.2695C24.4688 28.2891 24.8086 29.0859 25.4883 29.6602C26.168 30.2344 27.041 30.5215 28.1074 30.5215ZM50.5371 16.8984C50.0449 16.8164 49.5117 16.7754 48.9375 16.7754C46.8047 16.7754 45.3574 17.6836 44.5957 19.5V33H41.3438V13.9805H44.5078L44.5605 16.1777C45.627 14.4785 47.1387 13.6289 49.0957 13.6289C49.7285 13.6289 50.209 13.7109 50.5371 13.875V16.8984ZM56.6016 13.9805L56.6895 16.0898C58.084 14.4492 59.9648 13.6289 62.332 13.6289C64.9922 13.6289 66.8027 14.6484 67.7637 16.6875C68.3965 15.7734 69.2168 15.0352 70.2246 14.4727C71.2441 13.9102 72.4453 13.6289 73.8281 13.6289C78 13.6289 80.1211 15.8379 80.1914 20.2559V33H76.9395V20.4492C76.9395 19.0898 76.6289 18.0762 76.0078 17.4082C75.3867 16.7285 74.3438 16.3887 72.8789 16.3887C71.6719 16.3887 70.6699 16.752 69.873 17.4785C69.0762 18.1934 68.6133 19.1602 68.4844 20.3789V33H65.2148V20.5371C65.2148 17.7715 63.8613 16.3887 61.1543 16.3887C59.0215 16.3887 57.5625 17.2969 56.7773 19.1133V33H53.5254V13.9805H56.6016ZM95.625 33C95.3906 32.543 95.2207 31.9746 95.1152 31.2949C93.8848 32.666 92.2852 33.3516 90.3164 33.3516C88.4531 33.3516 86.9062 32.8125 85.6758 31.7344C84.457 30.6562 83.8477 29.2969 83.8477 27.6562C83.8477 25.6406 84.5918 24.0938 86.0801 23.0156C87.5801 21.9375 89.7422 21.3926 92.5664 21.3809H94.9043V20.291C94.9043 19.4121 94.6758 18.709 94.2188 18.1816C93.7734 17.6543 93.0645 17.3906 92.0918 17.3906C91.2363 17.3906 90.5625 17.5957 90.0703 18.0059C89.5898 18.416 89.3496 18.9785 89.3496 19.6934H84.2695C84.2695 18.5918 84.6094 17.5723 85.2891 16.6348C85.9688 15.6973 86.9297 14.9648 88.1719 14.4375C89.4141 13.8984 90.8086 13.6289 92.3555 13.6289C94.6992 13.6289 96.5566 14.2207 97.9277 15.4043C99.3105 16.5762 100.002 18.2285 100.002 20.3613V28.6055C100.014 30.4102 100.266 31.7754 100.758 32.7012V33H95.625ZM91.4238 29.4668C92.1738 29.4668 92.8652 29.3027 93.498 28.9746C94.1309 28.6348 94.5996 28.1836 94.9043 27.6211V24.3516H93.0059C90.4629 24.3516 89.1094 25.2305 88.9453 26.9883L88.9277 27.2871C88.9277 27.9199 89.1504 28.4414 89.5957 28.8516C90.041 29.2617 90.6504 29.4668 91.4238 29.4668ZM121.025 23.666C121.025 26.5957 120.357 28.9453 119.021 30.7148C117.697 32.4727 115.904 33.3516 113.643 33.3516C111.721 33.3516 110.168 32.6836 108.984 31.3477V40.3125H103.904V13.9805H108.615L108.791 15.8438C110.021 14.3672 111.627 13.6289 113.607 13.6289C115.951 13.6289 117.773 14.4961 119.074 16.2305C120.375 17.9648 121.025 20.3555 121.025 23.4023V23.666ZM115.945 23.2969C115.945 21.5273 115.629 20.1621 114.996 19.2012C114.375 18.2402 113.467 17.7598 112.271 17.7598C110.678 17.7598 109.582 18.3691 108.984 19.5879V27.375C109.605 28.6289 110.713 29.2559 112.307 29.2559C114.732 29.2559 115.945 27.2695 115.945 23.2969ZM141.311 23.666C141.311 26.5957 140.643 28.9453 139.307 30.7148C137.982 32.4727 136.189 33.3516 133.928 33.3516C132.006 33.3516 130.453 32.6836 129.27 31.3477V40.3125H124.189V13.9805H128.9L129.076 15.8438C130.307 14.3672 131.912 13.6289 133.893 13.6289C136.236 13.6289 138.059 14.4961 139.359 16.2305C140.66 17.9648 141.311 20.3555 141.311 23.4023V23.666ZM136.23 23.2969C136.23 21.5273 135.914 20.1621 135.281 19.2012C134.66 18.2402 133.752 17.7598 132.557 17.7598C130.963 17.7598 129.867 18.3691 129.27 19.5879V27.375C129.891 28.6289 130.998 29.2559 132.592 29.2559C135.018 29.2559 136.23 27.2695 136.23 23.2969Z" fill="black"/>
</svg>
